<svg width="192" height="78" viewBox="0 0 192 78" fill="none" xmlns="http://www.w3.org/2000/svg">
<circle cx="25" cy="25" r="25" fill="#102B7B"/>
<mask id="mask0_1_119" style="mask-type:alpha" maskUnits="userSpaceOnUse" x="0" y="0" width="50" height="50">
<circle cx="25" cy="25" r="25" fill="#1E1E1E"/>
</mask>
<g mask="url(#mask0_1_119)">
<path d="M25.2032 26.2042C11.8497 26.2042 0.991547 33.4879 0.991547 42.4577C0.991547 46.5717 3.21713 50.281 6.99388 53.1135C7.06133 53.181 7.06133 53.181 7.12877 53.2484C7.53342 53.5182 7.93807 53.788 8.34272 54.0577C12.7265 56.8903 18.6613 58.6438 25.2032 58.6438C31.7451 58.6438 37.7474 56.8903 42.0637 54.0577C42.4009 53.7205 42.8056 53.4508 43.2777 53.2484C43.3451 53.181 43.3451 53.181 43.4126 53.1135C47.1219 50.281 49.4149 46.5042 49.4149 42.4577C49.3475 33.4879 38.5567 26.2042 25.2032 26.2042Z" fill="#2ECC71"/>
<path d="M44.2894 32.5437C44.0197 32.274 43.7499 32.0716 43.4127 31.8693C43.1429 32.3414 42.8057 32.7461 42.4685 33.1507C40.7824 34.8368 38.2871 35.5786 35.8592 34.9042C33.6336 34.2972 32.015 32.6112 31.3406 30.5879C31.4754 33.0833 33.8359 34.9717 36.2638 35.6461C38.6243 36.3205 42.0638 35.7135 43.5476 33.96C46.8522 36.5903 49.0104 39.9624 49.2801 43.6042C49.2801 43.267 49.3476 42.9298 49.3476 42.66C49.3476 38.8158 47.4592 35.3089 44.2894 32.5437Z" fill="#27C165"/>
<path d="M44.8292 44.1438C40.1757 54.8671 11.7826 55.609 5.51048 43.8066C5.51048 43.8066 12.6593 39.4903 25.4733 39.4903C37.6129 39.4903 44.8292 44.1438 44.8292 44.1438Z" fill="url(#paint0_linear_1_119)"/>
<path d="M6.0497 32.5437C6.31946 32.274 6.58923 32.0716 6.92644 31.8693C7.19621 32.3414 7.53342 32.7461 7.87063 33.1507C9.55668 34.8368 12.052 35.5786 14.4799 34.9042C16.7055 34.2972 18.3241 32.6112 18.9986 30.5879C18.8637 33.0833 16.5032 34.9717 14.0753 35.6461C11.7148 36.3205 8.27528 35.7135 6.79156 33.96C3.4869 36.5903 1.32876 39.9624 1.05899 43.6042C1.05899 43.267 0.991547 42.9298 0.991547 42.66C0.991547 38.8158 2.87992 35.3089 6.0497 32.5437Z" fill="#27C165"/>
<path d="M25.2038 27.9576C27.2271 27.9576 29.2503 28.1599 31.1387 28.4297C31.1387 27.8227 31.2062 27.2831 31.3411 26.6762C29.3852 26.339 27.2945 26.1366 25.2038 26.1366C23.0457 26.1366 21.0224 26.339 19.0666 26.6762C19.2015 27.2831 19.2689 27.8227 19.2689 28.4297C21.1573 28.1599 23.1131 27.9576 25.2038 27.9576Z" fill="#27C165"/>
<path d="M37.815 35.174C41.5025 35.174 44.4917 32.1847 44.4917 28.4972C44.4917 24.8098 41.5025 21.8205 37.815 21.8205C34.1275 21.8205 31.1382 24.8098 31.1382 28.4972C31.1382 32.1847 34.1275 35.174 37.815 35.174Z" fill="#00993E"/>
<path d="M37.6129 34.6345C41.1514 34.6345 44.0199 31.766 44.0199 28.2275C44.0199 24.689 41.1514 21.8205 37.6129 21.8205C34.0744 21.8205 31.2059 24.689 31.2059 28.2275C31.2059 31.766 34.0744 34.6345 37.6129 34.6345Z" fill="#2ECC71"/>
<path d="M37.6127 33.5554C40.5553 33.5554 42.9407 31.1701 42.9407 28.2275C42.9407 25.285 40.5553 22.8996 37.6127 22.8996C34.6702 22.8996 32.2848 25.285 32.2848 28.2275C32.2848 31.1701 34.6702 33.5554 37.6127 33.5554Z" fill="url(#paint1_radial_1_119)"/>
<path d="M37.6122 26.7436C36.1959 26.7436 35.0494 27.8227 34.9145 29.239L36.4656 29.6436L35.1168 30.4529C35.5215 31.4646 36.4656 32.139 37.6122 32.139C39.0959 32.139 40.3098 30.925 40.3098 29.4413C40.3098 27.9576 39.0959 26.7436 37.6122 26.7436Z" fill="#2A5351"/>
<path d="M34.9145 29.2391C34.9145 29.3066 34.9145 29.374 34.9145 29.4414C34.9145 29.7786 34.9819 30.1833 35.1168 30.4531L36.4656 29.6438L34.9145 29.2391Z" fill="white"/>
<path d="M12.5921 35.174C16.2795 35.174 19.2688 32.1847 19.2688 28.4973C19.2688 24.8098 16.2795 21.8205 12.5921 21.8205C8.90459 21.8205 5.9153 24.8098 5.9153 28.4973C5.9153 32.1847 8.90459 35.174 12.5921 35.174Z" fill="#00993E"/>
<path d="M12.7271 34.6345C16.2656 34.6345 19.1341 31.766 19.1341 28.2275C19.1341 24.689 16.2656 21.8205 12.7271 21.8205C9.18866 21.8205 6.32016 24.689 6.32016 28.2275C6.32016 31.766 9.18866 34.6345 12.7271 34.6345Z" fill="#2ECC71"/>
<path d="M12.727 33.5554C15.6695 33.5554 18.0549 31.1701 18.0549 28.2275C18.0549 25.285 15.6695 22.8996 12.727 22.8996C9.78443 22.8996 7.39905 25.285 7.39905 28.2275C7.39905 31.1701 9.78443 33.5554 12.727 33.5554Z" fill="url(#paint2_radial_1_119)"/>
<path d="M12.7264 26.7436C11.3101 26.7436 10.1636 27.8227 10.0287 29.239L11.5798 29.6436L10.231 30.4529C10.6357 31.4646 11.5798 32.139 12.7264 32.139C14.2101 32.139 15.424 30.925 15.424 29.4413C15.424 27.9576 14.2101 26.7436 12.7264 26.7436Z" fill="#2A5351"/>
<path d="M10.0287 29.2391C10.0287 29.3066 10.0287 29.374 10.0287 29.4414C10.0287 29.7786 10.0961 30.1833 10.231 30.4531L11.5798 29.6438L10.0287 29.2391Z" fill="white"/>
<path d="M5.51048 44.1438C11.7826 59.1833 40.1757 58.3066 44.8292 44.5484C37.8152 55.6089 14.4128 55.2043 5.51048 44.1438Z" fill="url(#paint3_linear_1_119)"/>
<path d="M44.8292 44.1437C40.1757 54.867 11.7826 55.6089 5.51048 43.8065" stroke="#00993E" stroke-width="0.94921" stroke-miterlimit="10"/>
<path d="M23.4207 34.5355C23.7824 34.5355 24.0756 34.2422 24.0756 33.8805C24.0756 33.5188 23.7824 33.2256 23.4207 33.2256C23.059 33.2256 22.7657 33.5188 22.7657 33.8805C22.7657 34.2422 23.059 34.5355 23.4207 34.5355Z" fill="#44A85F"/>
<path d="M27.1418 34.5355C27.5035 34.5355 27.7968 34.2422 27.7968 33.8805C27.7968 33.5188 27.5035 33.2256 27.1418 33.2256C26.7801 33.2256 26.4869 33.5188 26.4869 33.8805C26.4869 34.2422 26.7801 34.5355 27.1418 34.5355Z" fill="#44A85F"/>
<path d="M46.0907 44.7884C46.189 44.5877 45.6992 44.146 44.9968 43.802C44.2943 43.4579 43.6451 43.3416 43.5468 43.5423C43.4485 43.7431 43.9383 44.1847 44.6407 44.5288C45.3432 44.8729 45.9924 44.9891 46.0907 44.7884Z" fill="#00993E"/>
<path d="M5.6925 44.1702C6.39499 43.8261 6.88477 43.3845 6.78646 43.1838C6.68815 42.9831 6.03898 43.0993 5.33649 43.4434C4.63401 43.7875 4.14423 44.2291 4.24254 44.4298C4.34085 44.6305 4.99002 44.5143 5.6925 44.1702Z" fill="#00993E"/>
<path opacity="0.17" d="M46.1106 37.6019C46.7811 37.6019 47.3246 37.0584 47.3246 36.3879C47.3246 35.7175 46.7811 35.174 46.1106 35.174C45.4402 35.174 44.8967 35.7175 44.8967 36.3879C44.8967 37.0584 45.4402 37.6019 46.1106 37.6019Z" fill="#006D2C"/>
<path opacity="0.17" d="M4.36337 37.3995C5.03382 37.3995 5.57733 36.856 5.57733 36.1855C5.57733 35.5151 5.03382 34.9716 4.36337 34.9716C3.69292 34.9716 3.14941 35.5151 3.14941 36.1855C3.14941 36.856 3.69292 37.3995 4.36337 37.3995Z" fill="#006D2C"/>
</g>
<path d="M78.0682 25C77.9773 23.8636 77.5511 22.9773 76.7898 22.3409C76.0398 21.7045 74.8977 21.3864 73.3636 21.3864C72.3864 21.3864 71.5852 21.5057 70.9602 21.7443C70.3466 21.9716 69.892 22.2841 69.5966 22.6818C69.3011 23.0795 69.1477 23.5341 69.1364 24.0455C69.1136 24.4659 69.1875 24.8466 69.358 25.1875C69.5398 25.517 69.8239 25.8182 70.2102 26.0909C70.5966 26.3523 71.0909 26.5909 71.6932 26.8068C72.2955 27.0227 73.0114 27.2159 73.8409 27.3864L76.7045 28C78.6364 28.4091 80.2898 28.9489 81.6648 29.6193C83.0398 30.2898 84.1648 31.0795 85.0398 31.9886C85.9148 32.8864 86.5568 33.8977 86.9659 35.0227C87.3864 36.1477 87.6023 37.375 87.6136 38.7045C87.6023 41 87.0284 42.9432 85.892 44.5341C84.7557 46.125 83.1307 47.3352 81.017 48.1648C78.9148 48.9943 76.3864 49.4091 73.4318 49.4091C70.3977 49.4091 67.75 48.9602 65.4886 48.0625C63.2386 47.1648 61.4886 45.7841 60.2386 43.9205C59 42.0455 58.375 39.6477 58.3636 36.7273H67.3636C67.4205 37.7955 67.6875 38.6932 68.1648 39.4205C68.642 40.1477 69.3125 40.6989 70.1761 41.0739C71.0511 41.4489 72.0909 41.6364 73.2955 41.6364C74.3068 41.6364 75.1534 41.5114 75.8352 41.2614C76.517 41.0114 77.0341 40.6648 77.3864 40.2216C77.7386 39.7784 77.9205 39.2727 77.9318 38.7045C77.9205 38.1705 77.7443 37.7045 77.4034 37.3068C77.0739 36.8977 76.5284 36.5341 75.767 36.2159C75.0057 35.8864 73.9773 35.5795 72.6818 35.2955L69.2045 34.5455C66.1136 33.875 63.6761 32.7557 61.892 31.1875C60.1193 29.608 59.2386 27.4545 59.25 24.7273C59.2386 22.5114 59.8295 20.5739 61.0227 18.9148C62.2273 17.2443 63.892 15.9432 66.017 15.0114C68.1534 14.0795 70.6023 13.6136 73.3636 13.6136C76.1818 13.6136 78.6193 14.0852 80.6761 15.0284C82.733 15.9716 84.3182 17.3011 85.4318 19.017C86.5568 20.7216 87.125 22.7159 87.1364 25H78.0682ZM98.9276 49H88.7003L100.223 14.0909H113.178L124.7 49H114.473L106.837 23.7045H106.564L98.9276 49ZM97.0185 35.2273H116.246V42.3182H97.0185V35.2273ZM145.521 25C145.43 23.8636 145.004 22.9773 144.243 22.3409C143.493 21.7045 142.351 21.3864 140.817 21.3864C139.839 21.3864 139.038 21.5057 138.413 21.7443C137.8 21.9716 137.345 22.2841 137.05 22.6818C136.754 23.0795 136.601 23.5341 136.589 24.0455C136.567 24.4659 136.641 24.8466 136.811 25.1875C136.993 25.517 137.277 25.8182 137.663 26.0909C138.05 26.3523 138.544 26.5909 139.146 26.8068C139.749 27.0227 140.464 27.2159 141.294 27.3864L144.158 28C146.089 28.4091 147.743 28.9489 149.118 29.6193C150.493 30.2898 151.618 31.0795 152.493 31.9886C153.368 32.8864 154.01 33.8977 154.419 35.0227C154.839 36.1477 155.055 37.375 155.067 38.7045C155.055 41 154.482 42.9432 153.345 44.5341C152.209 46.125 150.584 47.3352 148.47 48.1648C146.368 48.9943 143.839 49.4091 140.885 49.4091C137.851 49.4091 135.203 48.9602 132.942 48.0625C130.692 47.1648 128.942 45.7841 127.692 43.9205C126.453 42.0455 125.828 39.6477 125.817 36.7273H134.817C134.874 37.7955 135.141 38.6932 135.618 39.4205C136.095 40.1477 136.766 40.6989 137.629 41.0739C138.504 41.4489 139.544 41.6364 140.749 41.6364C141.76 41.6364 142.607 41.5114 143.288 41.2614C143.97 41.0114 144.487 40.6648 144.839 40.2216C145.192 39.7784 145.374 39.2727 145.385 38.7045C145.374 38.1705 145.197 37.7045 144.857 37.3068C144.527 36.8977 143.982 36.5341 143.22 36.2159C142.459 35.8864 141.43 35.5795 140.135 35.2955L136.658 34.5455C133.567 33.875 131.129 32.7557 129.345 31.1875C127.572 29.608 126.692 27.4545 126.703 24.7273C126.692 22.5114 127.283 20.5739 128.476 18.9148C129.68 17.2443 131.345 15.9432 133.47 15.0114C135.607 14.0795 138.055 13.6136 140.817 13.6136C143.635 13.6136 146.072 14.0852 148.129 15.0284C150.186 15.9716 151.771 17.3011 152.885 19.017C154.01 20.7216 154.578 22.7159 154.589 25H145.521ZM177.49 25C177.399 23.8636 176.973 22.9773 176.212 22.3409C175.462 21.7045 174.32 21.3864 172.786 21.3864C171.808 21.3864 171.007 21.5057 170.382 21.7443C169.768 21.9716 169.314 22.2841 169.018 22.6818C168.723 23.0795 168.57 23.5341 168.558 24.0455C168.536 24.4659 168.609 24.8466 168.78 25.1875C168.962 25.517 169.246 25.8182 169.632 26.0909C170.018 26.3523 170.513 26.5909 171.115 26.8068C171.717 27.0227 172.433 27.2159 173.263 27.3864L176.126 28C178.058 28.4091 179.712 28.9489 181.087 29.6193C182.462 30.2898 183.587 31.0795 184.462 31.9886C185.337 32.8864 185.979 33.8977 186.388 35.0227C186.808 36.1477 187.024 37.375 187.036 38.7045C187.024 41 186.45 42.9432 185.314 44.5341C184.178 46.125 182.553 47.3352 180.439 48.1648C178.337 48.9943 175.808 49.4091 172.854 49.4091C169.82 49.4091 167.172 48.9602 164.911 48.0625C162.661 47.1648 160.911 45.7841 159.661 43.9205C158.422 42.0455 157.797 39.6477 157.786 36.7273H166.786C166.842 37.7955 167.109 38.6932 167.587 39.4205C168.064 40.1477 168.734 40.6989 169.598 41.0739C170.473 41.4489 171.513 41.6364 172.717 41.6364C173.729 41.6364 174.575 41.5114 175.257 41.2614C175.939 41.0114 176.456 40.6648 176.808 40.2216C177.161 39.7784 177.342 39.2727 177.354 38.7045C177.342 38.1705 177.166 37.7045 176.825 37.3068C176.496 36.8977 175.95 36.5341 175.189 36.2159C174.428 35.8864 173.399 35.5795 172.104 35.2955L168.626 34.5455C165.536 33.875 163.098 32.7557 161.314 31.1875C159.541 29.608 158.661 27.4545 158.672 24.7273C158.661 22.5114 159.251 20.5739 160.445 18.9148C161.649 17.2443 163.314 15.9432 165.439 15.0114C167.575 14.0795 170.024 13.6136 172.786 13.6136C175.604 13.6136 178.041 14.0852 180.098 15.0284C182.155 15.9716 183.74 17.3011 184.854 19.017C185.979 20.7216 186.547 22.7159 186.558 25H177.49Z" fill="white"/>
<path d="M13.3395 62.4531C13.2732 61.8329 12.9938 61.3499 12.5014 61.0043C12.0137 60.6586 11.3793 60.4858 10.598 60.4858C10.0488 60.4858 9.57765 60.5687 9.18466 60.7344C8.79167 60.9001 8.491 61.125 8.28267 61.4091C8.07434 61.6932 7.9678 62.0175 7.96307 62.3821C7.96307 62.6851 8.03172 62.9479 8.16903 63.1705C8.31108 63.393 8.50284 63.5824 8.74432 63.7386C8.9858 63.8902 9.25331 64.018 9.54688 64.1222C9.84044 64.2263 10.1364 64.3139 10.4347 64.3849L11.7983 64.7259C12.3475 64.8537 12.8755 65.0265 13.3821 65.2443C13.8935 65.4621 14.3504 65.7367 14.7528 66.0682C15.16 66.3996 15.482 66.7997 15.7188 67.2685C15.9555 67.7372 16.0739 68.2865 16.0739 68.9162C16.0739 69.7685 15.8561 70.5189 15.4205 71.1676C14.9848 71.8116 14.3551 72.3158 13.5312 72.6804C12.7121 73.0402 11.7202 73.2202 10.5554 73.2202C9.42377 73.2202 8.44129 73.045 7.60795 72.6946C6.77936 72.3442 6.13068 71.8329 5.66193 71.1605C5.19792 70.4882 4.94697 69.669 4.90909 68.7031H7.50142C7.5393 69.2098 7.69555 69.6312 7.97017 69.9673C8.24479 70.3035 8.60227 70.5545 9.04261 70.7202C9.48769 70.8859 9.98485 70.9688 10.5341 70.9688C11.107 70.9688 11.6089 70.8835 12.0398 70.7131C12.4754 70.5379 12.8163 70.2964 13.0625 69.9886C13.3087 69.6761 13.4342 69.3116 13.4389 68.8949C13.4342 68.5161 13.3229 68.2036 13.1051 67.9574C12.8873 67.7064 12.5819 67.4981 12.1889 67.3324C11.8007 67.1619 11.3461 67.0104 10.8253 66.8778L9.17045 66.4517C7.97254 66.1439 7.02557 65.6776 6.32955 65.0526C5.63826 64.4228 5.29261 63.5871 5.29261 62.5455C5.29261 61.6884 5.52462 60.938 5.98864 60.294C6.45739 59.6501 7.09422 59.1506 7.89915 58.7955C8.70407 58.4356 9.61553 58.2557 10.6335 58.2557C11.6657 58.2557 12.5701 58.4356 13.3466 58.7955C14.1278 59.1506 14.741 59.6454 15.1861 60.2798C15.6312 60.9096 15.8608 61.634 15.875 62.4531H13.3395ZM23.7837 60.6634V58.4545H35.3888V60.6634H30.8931V73H28.2795V60.6634H23.7837ZM43.7362 73H40.9237L46.0444 58.4545H49.2972L54.4251 73H51.6126L47.7276 61.4375H47.614L43.7362 73ZM43.8285 67.2969H51.4989V69.4134H43.8285V67.2969ZM62.3409 73V58.4545H67.7955C68.9129 58.4545 69.8504 58.6487 70.608 59.0369C71.3703 59.4252 71.9455 59.9697 72.3338 60.6705C72.7268 61.3665 72.9233 62.1785 72.9233 63.1065C72.9233 64.0393 72.7244 64.849 72.3267 65.5355C71.9337 66.2173 71.3537 66.7453 70.5866 67.1193C69.8196 67.4886 68.8774 67.6733 67.7599 67.6733H63.875V65.4858H67.4048C68.0582 65.4858 68.5933 65.3958 69.0099 65.2159C69.4266 65.0312 69.7344 64.7637 69.9332 64.4134C70.1368 64.0582 70.2386 63.6226 70.2386 63.1065C70.2386 62.5904 70.1368 62.1501 69.9332 61.7855C69.7296 61.4162 69.4195 61.1368 69.0028 60.9474C68.5862 60.7533 68.0488 60.6562 67.3906 60.6562H64.9759V73H62.3409ZM69.8551 66.4091L73.456 73H70.5156L66.9787 66.4091H69.8551ZM80.7095 60.6634V58.4545H92.3146V60.6634H87.8189V73H85.2053V60.6634H80.7095ZM100.552 73V58.4545H110.012V60.6634H103.187V64.6122H109.522V66.821H103.187V70.7912H110.069V73H100.552ZM118.7 73V58.4545H124.155C125.272 58.4545 126.21 58.6487 126.967 59.0369C127.73 59.4252 128.305 59.9697 128.693 60.6705C129.086 61.3665 129.283 62.1785 129.283 63.1065C129.283 64.0393 129.084 64.849 128.686 65.5355C128.293 66.2173 127.713 66.7453 126.946 67.1193C126.179 67.4886 125.237 67.6733 124.119 67.6733H120.234V65.4858H123.764C124.418 65.4858 124.953 65.3958 125.369 65.2159C125.786 65.0312 126.094 64.7637 126.293 64.4134C126.496 64.0582 126.598 63.6226 126.598 63.1065C126.598 62.5904 126.496 62.1501 126.293 61.7855C126.089 61.4162 125.779 61.1368 125.362 60.9474C124.946 60.7533 124.408 60.6562 123.75 60.6562H121.335V73H118.7ZM126.214 66.4091L129.815 73H126.875L123.338 66.4091H126.214ZM148.669 73V58.4545H151.304V65.1378H151.482L157.156 58.4545H160.374L154.749 64.9815L160.423 73H157.256L152.916 66.7642L151.304 68.6676V73H148.669ZM170.839 58.4545V73H168.204V58.4545H170.839ZM179.053 60.6634V58.4545H190.658V60.6634H186.163V73H183.549V60.6634H179.053Z" fill="#30CF73"/>
<defs>
<linearGradient id="paint0_linear_1_119" x1="25.1762" y1="52.4001" x2="25.1762" y2="39.5156" gradientUnits="userSpaceOnUse">
<stop stop-color="#3BE07E"/>
<stop offset="0.0338869" stop-color="#3ADF7D"/>
<stop offset="0.5522" stop-color="#31D174"/>
<stop offset="1" stop-color="#2ECC71"/>
</linearGradient>
<radialGradient id="paint1_radial_1_119" cx="0" cy="0" r="1" gradientUnits="userSpaceOnUse" gradientTransform="translate(37.62 28.213) scale(5.32974)">
<stop offset="0.5167" stop-color="white"/>
<stop offset="0.737" stop-color="#F7F7F7"/>
<stop offset="1" stop-color="#E6E7E8"/>
</radialGradient>
<radialGradient id="paint2_radial_1_119" cx="0" cy="0" r="1" gradientUnits="userSpaceOnUse" gradientTransform="translate(12.7328 28.213) rotate(180) scale(5.32974 5.32974)">
<stop offset="0.5167" stop-color="white"/>
<stop offset="0.737" stop-color="#F7F7F7"/>
<stop offset="1" stop-color="#E6E7E8"/>
</radialGradient>
<linearGradient id="paint3_linear_1_119" x1="25.1762" y1="55.178" x2="25.1762" y2="38.6854" gradientUnits="userSpaceOnUse">
<stop stop-color="#2ECC71"/>
<stop offset="0.3969" stop-color="#2AC66A"/>
<stop offset="1" stop-color="#27C165"/>
</linearGradient>
</defs>
</svg>
